:FULLY-SPECIFIED
:FORCE-ALL-JOINTS-BE-3DOF
:DEGREES
437
root 10.5491 17.2546 25.8541 7.76892 -1.79083 -0.27911
lfemur -31.6147 4.29618 -25.1938
ltibia 31.0023 0 0
lfoot -7.17196 6.35187 0
ltoes 0.788792 0 0
rfemur -6.57509 -1.11571 19.5448
rtibia 58.1283 0 0
rfoot 11.2875 -5.18457 0
rtoes -10.3047 0 0
lowerback -5.15734 1.79186 -1.2321
upperback -4.48583 2.44776 1.17279
thorax -1.82972 1.27526 1.9761
lowerneck -16.0271 -5.11779 -14.7129
upperneck 22.7624 -6.57678 12.9938
head 10.9234 -2.83159 6.30968
lclavicle 2.1394e-14 3.72537e-15 0
lhumerus -41.4287 -4.13211 89.2648
lradius 19.1736 0 0
lwrist -5.25774 0 0
lhand -13.0259 -25.1216 0
lfingers 7.12502 0 0
lthumb 13.0683 4.44966 0
rclavicle 2.1394e-14 3.72537e-15 0
rhumerus -46.8622 10.0952 -90.5957
rradius 30.0816 0 0
rwrist -12.3411 0 0
rhand -34.8489 -18.4286 0
rfingers 7.12502 0 0
rthumb -7.99844 -48.2409 0
438
root 10.5545 17.2658 25.9099 7.81752 -1.73062 -0.44811
lfemur -31.4167 4.32203 -25.0147
ltibia 30.8381 0 0
lfoot -7.27371 6.29438 0
ltoes 0.33369 0 0
rfemur -7.68762 -1.13412 19.8352
rtibia 59.516 0 0
rfoot 10.0682 -6.54336 0
rtoes -9.85161 0 0
lowerback -4.92288 1.69941 -1.08569
upperback -4.42307 2.31668 1.26277
thorax -1.88686 1.20752 1.9746
lowerneck -16.6059 -5.11568 -14.5346
upperneck 22.8675 -6.50503 12.8366
head 11.0496 -2.78045 6.2295
lclavicle 2.65228e-14 6.18073e-15 0
lhumerus -40.5979 -4.34728 89.4209
lradius 19.0838 0 0
lwrist -5.11599 0 0
lhand -13.2981 -25.135 0
lfingers 7.12502 0 0
lthumb 12.8058 4.45258 0
rclavicle 2.65228e-14 6.18073e-15 0
rhumerus -46.6828 10.0808 -90.4907
rradius 30.137 0 0
rwrist -12.0492 0 0
rhand -35.9874 -17.022 0
rfingers 7.12502 0 0
rthumb -9.09748 -46.8031 0
439
root 10.5433 17.2543 25.847 7.93048 -1.78989 -0.631935
lfemur -31.971 4.27498 -24.7621
ltibia 31.1109 0 0
lfoot -7.11285 6.39123 0
ltoes 0.328199 0 0
rfemur -7.43012 -0.997162 20.1013
rtibia 59.1401 0 0
rfoot 10.4679 -6.50573 0
rtoes -9.71383 0 0
lowerback -4.86194 1.77736 -0.979049
upperback -4.4591 2.4151 1.29785
thorax -1.96084 1.25646 1.95397
lowerneck -16.7197 -5.17553 -14.5697
upperneck 22.8437 -6.57714 12.8916
head 11.078 -2.80616 6.24422
lclavicle 2.86498e-14 6.75868e-15 0
lhumerus -40.8572 -4.20007 89.3841
lradius 19.0471 0 0
lwrist -5.06057 0 0
lhand -13.3808 -25.2087 0
lfingers 7.12502 0 0
lthumb 12.7261 4.3835 0
rclavicle 2.86498e-14 6.75868e-15 0
rhumerus -46.545 10.0194 -90.4803
rradius 30.0551 0 0
rwrist -12.0386 0 0
rhand -36.2869 -16.3683 0
rfingers 7.12502 0 0
rthumb -9.38662 -46.1393 0
440
root 10.573 17.287 26.0301 7.65559 -1.56964 -0.273582
lfemur -30.476 4.36856 -25.2741
ltibia 30.3479 0 0
lfoot -7.5652 6.12411 0
ltoes 0.135581 0 0
rfemur -8.56264 -1.33921 19.6272
rtibia 60.4987 0 0
rfoot 8.62854 -7.22278 0
rtoes -9.97695 0 0
lowerback -4.92147 1.51621 -1.16369
upperback -4.2779 2.07599 1.26569
thorax -1.72768 1.08515 2.01209
lowerneck -16.8487 -5.03621 -14.3527
upperneck 22.968 -6.36615 12.6513
head 11.0981 -2.71384 6.14995
lclavicle 2.52206e-14 6.60085e-15 0
lhumerus -39.6763 -4.75961 89.5726
lradius 19.1136 0 0
lwrist -5.09892 0 0
lhand -13.2242 -24.9777 0
lfingers 7.12502 0 0
lthumb 12.877 4.60439 0
rclavicle 2.52206e-14 6.60085e-15 0
rhumerus -46.6811 10.1466 -90.4029
rradius 30.3461 0 0
rwrist -11.9155 0 0
rhand -36.0474 -17.4354 0
rfingers 7.12502 0 0
rthumb -9.15554 -47.217 0
441
root 10.6139 17.3291 26.2749 7.21029 -1.239 0.328969
lfemur -28.3352 4.46857 -26.1006
ltibia 29.2895 0 0
lfoot -8.1893 5.75597 0
ltoes 0.0812785 0 0
rfemur -9.66717 -1.83367 18.8156
rtibia 61.6565 0 0
rfoot 6.29881 -7.60217 0
rtoes -10.6902 0 0
lowerback -5.14044 1.15646 -1.50242
upperback -3.99356 1.61304 1.18249
thorax -1.29591 0.851145 2.10484
lowerneck -16.8564 -4.83817 -14.0849
upperneck 23.1117 -6.08994 12.3503
head 11.0886 -2.59891 6.03487
lclavicle 1.71511e-14 5.24203e-15 0
lhumerus -38.2275 -5.55224 89.7933
lradius 19.27 0 0
lwrist -5.20196 0 0
lhand -12.7971 -24.587 0
lfingers 7.12502 0 0
lthumb 13.2887 4.96729 0
rclavicle 1.71511e-14 5.24203e-15 0
rhumerus -46.8812 10.329 -90.3003
rradius 30.7963 0 0
rwrist -11.8681 0 0
rhand -35.1026 -19.7988 0
rfingers 7.12502 0 0
rthumb -8.24349 -49.6117 0
442
root 10.6572 17.3723 26.5284 6.70834 -0.880258 1.02484
lfemur -26.0366 4.56815 -27.0421
ltibia 28.16 0 0
lfoot -8.83743 5.36216 0
ltoes 0.123009 0 0
rfemur -10.5897 -2.37677 17.8679
rtibia 62.5525 0 0
rfoot 3.96519 -7.72487 0
rtoes -11.564 0 0
lowerback -5.44004 0.780632 -1.90564
upperback -3.68305 1.13193 1.07241
thorax -0.792443 0.608023 2.20837
lowerneck -16.7626 -4.62641 -13.8251
upperneck 23.2467 -5.80649 12.051
head 11.0557 -2.4847 5.92305
lclavicle 6.91394e-15 3.29237e-15 0
lhumerus -36.8159 -6.38138 90.0122
lradius 19.4613 0 0
lwrist -5.33862 0 0
lhand -12.2485 -24.1379 0
lfingers 7.12502 0 0
lthumb 13.8174 5.38067 0
rclavicle 6.91394e-15 3.29237e-15 0
rhumerus -47.1109 10.5281 -90.2025
rradius 31.284 0 0
rwrist -11.87 0 0
rhand -33.8031 -22.7352 0
rfingers 7.12502 0 0
rthumb -6.98911 -52.5896 0
443
root 10.6938 17.4084 26.7379 6.2635 -0.575695 1.66314
lfemur -24.0677 4.66044 -27.8993
ltibia 27.1836 0 0
lfoot -9.36186 5.01804 0
ltoes 0.21849 0 0
rfemur -11.176 -2.86474 16.9855
rtibia 63.1256 0 0
rfoot 2.11419 -7.67185 0
rtoes -12.3085 0 0
lowerback -5.74143 0.471222 -2.28371
upperback -3.42334 0.738333 0.959599
thorax -0.344171 0.409383 2.2988
lowerneck -16.5873 -4.44596 -13.6321
upperneck 23.3446 -5.57374 11.816
head 11.0057 -2.39453 5.83855
lclavicle -3.01816e-15 1.36204e-15 0
lhumerus -35.7465 -7.05045 90.1951
lradius 19.6325 0 0
lwrist -5.47783 0 0
lhand -11.7277 -23.7316 0
lfingers 7.12502 0 0
lthumb 14.3193 5.753 0
rclavicle -3.01816e-15 1.36204e-15 0
rhumerus -47.3355 10.7052 -90.1394
rradius 31.6877 0 0
rwrist -11.8951 0 0
rhand -32.4997 -25.5214 0
rfingers 7.12502 0 0
rthumb -5.73099 -55.4164 0
444
root 10.7146 17.4292 26.8505 5.98956 -0.407597 2.09301
lfemur -22.9164 4.73858 -28.4727
ltibia 26.5848 0 0
lfoot -9.61484 4.79898 0
ltoes 0.325441 0 0
rfemur -11.2722 -3.19381 16.37
rtibia 63.315 0 0
rfoot 1.23229 -7.5241 0
rtoes -12.6342 0 0
lowerback -5.96581 0.31074 -2.54703
upperback -3.2914 0.537921 0.868196
thorax -0.0779923 0.308816 2.35228
lowerneck -16.3502 -4.34182 -13.5648
upperneck 23.3771 -5.44964 11.7076
head 10.9447 -2.35174 5.80541
lclavicle -1.01724e-14 6.11997e-17 0
lhumerus -35.3243 -7.36288 90.308
lradius 19.7286 0 0
lwrist -5.58854 0 0
lhand -11.3838 -23.4695 0
lfingers 7.12502 0 0
lthumb 14.6507 5.99275 0
rclavicle -1.01724e-14 6.11997e-17 0
rhumerus -47.5205 10.8217 -90.1409
rradius 31.8858 0 0
rwrist -11.917 0 0
rhand -31.5434 -27.434 0
rfingers 7.12502 0 0
rthumb -4.80776 -57.3581 0
445
root 10.7107 17.4265 26.8133 6.00027 -0.458248 2.16355
lfemur -23.0705 4.7957 -28.5627
ltibia 26.5877 0 0
lfoot -9.44864 4.78035 0
ltoes 0.40158 0 0
rfemur -10.7242 -3.26021 16.2227
rtibia 63.0596 0 0
rfoot 1.80601 -7.36258 0
rtoes -12.2513 0 0
lowerback -6.03434 0.381693 -2.60597
upperback -3.3642 0.636374 0.822356
thorax -0.120806 0.359915 2.34495
lowerneck -16.0712 -4.35901 -13.6819
upperneck 23.316 -5.49214 11.7882
head 10.8791 -2.37963 5.84771
lclavicle -1.20762e-14 0 0
lhumerus -35.8543 -7.12209 90.3168
lradius 19.6945 0 0
lwrist -5.63968 0 0
lhand -11.3662 -23.4528 0
lfingers 7.12502 0 0
lthumb 14.6677 6.00839 0
rclavicle -1.20762e-14 0 0
rhumerus -47.6312 10.8391 -90.237
rradius 31.7566 0 0
rwrist -11.9094 0 0
rhand -31.2847 -27.7496 0
rfingers 7.12502 0 0
rthumb -4.55804 -57.6806 0
446
root 10.73 17.4409 26.9618 5.8269 -0.235036 2.20412
lfemur -22.1198 4.67307 -28.6175
ltibia 26.3234 0 0
lfoot -10.0094 4.72718 0
ltoes 0.335325 0 0
rfemur -12.0948 -3.22823 16.2872
rtibia 63.5576 0 0
rfoot -0.0570891 -7.53677 0
rtoes -13.4453 0 0
lowerback -5.99014 0.117707 -2.60225
upperback -3.10184 0.281901 0.892569
thorax 0.143613 0.17745 2.39809
lowerneck -16.6459 -4.26144 -13.3548
upperneck 23.4804 -5.32551 11.5438
head 11.0119 -2.28856 5.72979
lclavicle -1.15854e-14 -9.17539e-16 0
lhumerus -34.3044 -7.92966 90.3184
lradius 19.8602 0 0
lwrist -5.54002 0 0
lhand -11.2216 -23.3686 0
lfingers 7.12502 0 0
lthumb 14.8071 6.08294 0
rclavicle -1.15854e-14 -9.17539e-16 0
rhumerus -47.4261 10.8537 -89.9861
rradius 32.2069 0 0
rwrist -12.0074 0 0
rhand -31.3276 -28.0854 0
rfingers 7.12502 0 0
rthumb -4.59949 -58.0169 0
447
root 10.7482 17.4504 27.1287 5.69208 0.0264863 2.0612
lfemur -21.2599 4.43901 -28.4209
ltibia 26.2464 0 0
lfoot -10.7379 4.75982 0
ltoes 0.23768 0 0
rfemur -14.0541 -3.00143 16.6796
rtibia 64.0349 0 0
rfoot -2.40215 -7.75012 0
rtoes -15.1265 0 0
lowerback -5.82879 -0.203596 -2.47992
upperback -2.76318 -0.156428 1.04159
thorax 0.428864 -0.0496009 2.45758
lowerneck -17.6118 -4.16398 -12.8993
upperneck 23.7065 -5.13782 11.2397
head 11.2381 -2.17342 5.57309
lclavicle -7.95188e-15 -1.97312e-15 0
lhumerus -32.1875 -9.01958 90.2431
lradius 20.0852 0 0
lwrist -5.31964 0 0
lhand -11.1564 -23.3715 0
lfingers 7.12502 0 0
lthumb 14.8699 6.07547 0
rclavicle -7.95188e-15 -1.97312e-15 0
rhumerus -47.0171 10.8197 -89.6032
rradius 32.804 0 0
rwrist -12.1929 0 0
rhand -31.754 -27.7991 0
rfingers 7.12502 0 0
rthumb -5.01121 -57.7198 0
448
root 10.7635 17.4561 27.2852 5.60084 0.276514 1.81612
lfemur -20.5714 4.16124 -28.086
ltibia 26.2944 0 0
lfoot -11.4783 4.84639 0
ltoes 0.120413 0 0
rfemur -16.1375 -2.68207 17.2361
rtibia 64.4604 0 0
rfoot -4.7539 -7.96301 0
rtoes -16.9447 0 0
lowerback -5.61421 -0.518754 -2.29157
upperback -2.41841 -0.590309 1.22204
thorax 0.691759 -0.275109 2.51057
lowerneck -18.7115 -4.08093 -12.4167
upperneck 23.9454 -4.96204 10.9315
head 11.4973 -2.05832 5.40907
lclavicle -2.57104e-15 -2.90723e-15 0
lhumerus -29.9792 -10.1415 90.1341
lradius 20.3133 0 0
lwrist -5.06342 0 0
lhand -11.138 -23.4254 0
lfingers 7.12502 0 0
lthumb 14.8875 6.02003 0
rclavicle -2.57104e-15 -2.90723e-15 0
rhumerus -46.527 10.7551 -89.1826
rradius 33.4178 0 0
rwrist -12.3959 0 0
rhand -32.3893 -27.1218 0
rfingers 7.12502 0 0
rthumb -5.62455 -57.0254 0
449
root 10.7741 17.459 27.4023 5.55822 0.465239 1.55018
lfemur -20.1347 3.90749 -27.7254
ltibia 26.4054 0 0
lfoot -12.0748 4.955 0
ltoes -0.00471037 0 0
rfemur -17.8806 -2.37245 17.793
rtibia 64.8033 0 0
rfoot -6.63704 -8.1358 0
rtoes -18.5495 0 0
lowerback -5.41026 -0.764302 -2.08982
upperback -2.1377 -0.931437 1.38651
thorax 0.889116 -0.452946 2.54425
lowerneck -19.6876 -4.02658 -12.0086
upperneck 24.1485 -4.83112 10.675
head 11.7291 -1.96732 5.26921
lclavicle 3.16165e-15 -3.46033e-15 0
lhumerus -28.1553 -11.045 90.0349
lradius 20.4886 0 0
lwrist -4.85625 0 0
lhand -11.134 -23.4941 0
lfingers 7.12502 0 0
lthumb 14.8914 5.95069 0
rclavicle 3.16165e-15 -3.46033e-15 0
rhumerus -46.0788 10.6781 -88.8189
rradius 33.9179 0 0
rwrist -12.5465 0 0
rhand -33.0587 -26.2847 0
rfingers 7.12502 0 0
rthumb -6.27085 -56.1699 0
